<mxfile host="Electron" modified="2024-02-29T07:48:33.039Z" agent="Mozilla/5.0 (Windows NT 10.0; Win64; x64) AppleWebKit/537.36 (KHTML, like Gecko) draw.io/22.0.3 Chrome/114.0.5735.289 Electron/25.8.4 Safari/537.36" etag="EzvDEdzUhA08UfWZvKK1" version="22.0.3" type="device">
  <diagram name="第 1 页" id="fhmDNDrW6xCTI_UVaYwa">
    <mxGraphModel dx="3267" dy="1407" grid="1" gridSize="10" guides="1" tooltips="1" connect="1" arrows="1" fold="1" page="1" pageScale="1" pageWidth="827" pageHeight="1169" math="0" shadow="0">
      <root>
        <mxCell id="0" />
        <mxCell id="1" parent="0" />
        <mxCell id="CBv78so2n2Ojm-IPe4CL-1" value="UAttributeSet" style="rounded=0;whiteSpace=wrap;html=1;" vertex="1" parent="1">
          <mxGeometry x="310" y="420" width="120" height="60" as="geometry" />
        </mxCell>
        <mxCell id="CBv78so2n2Ojm-IPe4CL-2" value="&lt;h1&gt;属性更改&lt;/h1&gt;&lt;p&gt;这里以更改Health为例&lt;/p&gt;&lt;p&gt;1. 初始化AbilitySystemComponent，记为ASC&lt;/p&gt;&lt;p&gt;2. 组件初始化，每个组件都需要首先初始化完成ASC，GetGameplayAttributeValueChangeDelegate&lt;span style=&quot;background-color: initial;&quot;&gt;给HealthSet绑定代理，并初始化默认值&lt;/span&gt;&lt;/p&gt;&lt;p&gt;3. 代理的作用是广播，当Health改变时，都可以通过委托，改变绑定委托的地方&lt;/p&gt;&lt;p&gt;4. 在UI界面绑定委托&lt;/p&gt;&lt;p&gt;5. 通过GE更改Health，触发委托，委托进行广播，对所有绑定OnHealthChanged进行更改&lt;/p&gt;" style="text;html=1;strokeColor=none;fillColor=none;spacing=5;spacingTop=-20;whiteSpace=wrap;overflow=hidden;rounded=0;" vertex="1" parent="1">
          <mxGeometry x="30" y="50" width="410" height="280" as="geometry" />
        </mxCell>
        <mxCell id="CBv78so2n2Ojm-IPe4CL-3" value="URougeAttributeSet" style="rounded=0;whiteSpace=wrap;html=1;" vertex="1" parent="1">
          <mxGeometry x="310" y="585" width="120" height="60" as="geometry" />
        </mxCell>
        <mxCell id="CBv78so2n2Ojm-IPe4CL-4" value="Extends" style="endArrow=block;endSize=16;endFill=0;html=1;rounded=0;exitX=0.5;exitY=0;exitDx=0;exitDy=0;entryX=0.5;entryY=1;entryDx=0;entryDy=0;" edge="1" parent="1" source="CBv78so2n2Ojm-IPe4CL-3" target="CBv78so2n2Ojm-IPe4CL-1">
          <mxGeometry width="160" relative="1" as="geometry">
            <mxPoint x="360" y="630" as="sourcePoint" />
            <mxPoint x="520" y="630" as="targetPoint" />
          </mxGeometry>
        </mxCell>
        <mxCell id="CBv78so2n2Ojm-IPe4CL-5" value="URougeHealthSet" style="rounded=0;whiteSpace=wrap;html=1;" vertex="1" parent="1">
          <mxGeometry x="310" y="750" width="120" height="60" as="geometry" />
        </mxCell>
        <mxCell id="CBv78so2n2Ojm-IPe4CL-6" value="Extends" style="endArrow=block;endSize=16;endFill=0;html=1;rounded=0;exitX=0.5;exitY=0;exitDx=0;exitDy=0;entryX=0.5;entryY=1;entryDx=0;entryDy=0;" edge="1" parent="1">
          <mxGeometry width="160" relative="1" as="geometry">
            <mxPoint x="369.66" y="750" as="sourcePoint" />
            <mxPoint x="369.66" y="645" as="targetPoint" />
          </mxGeometry>
        </mxCell>
        <mxCell id="CBv78so2n2Ojm-IPe4CL-7" value="URougeHealthComponent" style="rounded=0;whiteSpace=wrap;html=1;" vertex="1" parent="1">
          <mxGeometry x="765" y="750" width="160" height="60" as="geometry" />
        </mxCell>
        <mxCell id="CBv78so2n2Ojm-IPe4CL-8" value="ARougeCharacter" style="html=1;whiteSpace=wrap;" vertex="1" parent="1">
          <mxGeometry x="1150" y="620" width="110" height="50" as="geometry" />
        </mxCell>
        <mxCell id="CBv78so2n2Ojm-IPe4CL-9" value="" style="endArrow=diamondThin;endFill=1;endSize=24;html=1;rounded=0;exitX=0.5;exitY=0;exitDx=0;exitDy=0;entryX=0;entryY=0.5;entryDx=0;entryDy=0;" edge="1" parent="1" source="CBv78so2n2Ojm-IPe4CL-7" target="CBv78so2n2Ojm-IPe4CL-8">
          <mxGeometry width="160" relative="1" as="geometry">
            <mxPoint x="830" y="700" as="sourcePoint" />
            <mxPoint x="990" y="700" as="targetPoint" />
          </mxGeometry>
        </mxCell>
        <mxCell id="CBv78so2n2Ojm-IPe4CL-10" value="Bind" style="endArrow=open;endSize=12;dashed=1;html=1;rounded=0;exitX=0;exitY=0.5;exitDx=0;exitDy=0;entryX=1;entryY=0.5;entryDx=0;entryDy=0;" edge="1" parent="1" source="CBv78so2n2Ojm-IPe4CL-7" target="CBv78so2n2Ojm-IPe4CL-5">
          <mxGeometry width="160" relative="1" as="geometry">
            <mxPoint x="590" y="800" as="sourcePoint" />
            <mxPoint x="750" y="800" as="targetPoint" />
          </mxGeometry>
        </mxCell>
        <mxCell id="CBv78so2n2Ojm-IPe4CL-12" value="UGameFrameworkComponent" style="rounded=0;whiteSpace=wrap;html=1;" vertex="1" parent="1">
          <mxGeometry x="720" y="420" width="250" height="60" as="geometry" />
        </mxCell>
        <mxCell id="CBv78so2n2Ojm-IPe4CL-14" value="Extends" style="endArrow=block;endSize=16;endFill=0;html=1;rounded=0;exitX=0.5;exitY=0;exitDx=0;exitDy=0;entryX=0.5;entryY=1;entryDx=0;entryDy=0;" edge="1" parent="1" source="CBv78so2n2Ojm-IPe4CL-7" target="CBv78so2n2Ojm-IPe4CL-12">
          <mxGeometry width="160" relative="1" as="geometry">
            <mxPoint x="840" y="700" as="sourcePoint" />
            <mxPoint x="840" y="560" as="targetPoint" />
          </mxGeometry>
        </mxCell>
        <mxCell id="CBv78so2n2Ojm-IPe4CL-15" value="Character" style="rounded=0;whiteSpace=wrap;html=1;" vertex="1" parent="1">
          <mxGeometry x="1145" y="420" width="120" height="60" as="geometry" />
        </mxCell>
        <mxCell id="CBv78so2n2Ojm-IPe4CL-17" value="HealthBar" style="rounded=0;whiteSpace=wrap;html=1;" vertex="1" parent="1">
          <mxGeometry x="510" y="980" width="120" height="60" as="geometry" />
        </mxCell>
        <mxCell id="CBv78so2n2Ojm-IPe4CL-18" value="Delegate" style="endArrow=open;endSize=12;dashed=1;html=1;rounded=0;exitX=1;exitY=0.5;exitDx=0;exitDy=0;entryX=0.25;entryY=1;entryDx=0;entryDy=0;" edge="1" parent="1" source="CBv78so2n2Ojm-IPe4CL-17" target="CBv78so2n2Ojm-IPe4CL-7">
          <mxGeometry x="0.0006" width="160" relative="1" as="geometry">
            <mxPoint x="715" y="920" as="sourcePoint" />
            <mxPoint x="380" y="920" as="targetPoint" />
            <mxPoint as="offset" />
          </mxGeometry>
        </mxCell>
        <mxCell id="CBv78so2n2Ojm-IPe4CL-20" value="Delegate" style="endArrow=open;endSize=12;dashed=1;html=1;rounded=0;exitX=0;exitY=1;exitDx=0;exitDy=0;entryX=1;entryY=0.5;entryDx=0;entryDy=0;" edge="1" parent="1" source="CBv78so2n2Ojm-IPe4CL-8" target="CBv78so2n2Ojm-IPe4CL-7">
          <mxGeometry x="0.0006" width="160" relative="1" as="geometry">
            <mxPoint x="1085" y="940" as="sourcePoint" />
            <mxPoint x="1260" y="740" as="targetPoint" />
            <mxPoint as="offset" />
          </mxGeometry>
        </mxCell>
        <mxCell id="CBv78so2n2Ojm-IPe4CL-21" value="UI" style="text;html=1;align=center;verticalAlign=middle;resizable=0;points=[];autosize=1;strokeColor=none;fillColor=none;" vertex="1" parent="1">
          <mxGeometry x="590" y="900" width="40" height="30" as="geometry" />
        </mxCell>
        <mxCell id="CBv78so2n2Ojm-IPe4CL-22" value="Anim" style="text;html=1;align=center;verticalAlign=middle;resizable=0;points=[];autosize=1;strokeColor=none;fillColor=none;" vertex="1" parent="1">
          <mxGeometry x="1085" y="710" width="50" height="30" as="geometry" />
        </mxCell>
        <mxCell id="CBv78so2n2Ojm-IPe4CL-23" value="Extends" style="endArrow=block;endSize=16;endFill=0;html=1;rounded=0;exitX=0.5;exitY=0;exitDx=0;exitDy=0;entryX=0.5;entryY=1;entryDx=0;entryDy=0;" edge="1" parent="1" source="CBv78so2n2Ojm-IPe4CL-8" target="CBv78so2n2Ojm-IPe4CL-15">
          <mxGeometry width="160" relative="1" as="geometry">
            <mxPoint x="1290" y="760" as="sourcePoint" />
            <mxPoint x="1290" y="490" as="targetPoint" />
          </mxGeometry>
        </mxCell>
        <mxCell id="CBv78so2n2Ojm-IPe4CL-24" value="GA_Damage" style="rounded=0;whiteSpace=wrap;html=1;" vertex="1" parent="1">
          <mxGeometry x="-50" y="940" width="120" height="60" as="geometry" />
        </mxCell>
        <mxCell id="CBv78so2n2Ojm-IPe4CL-26" value="GE_Damage" style="rounded=0;whiteSpace=wrap;html=1;" vertex="1" parent="1">
          <mxGeometry x="140" y="940" width="120" height="60" as="geometry" />
        </mxCell>
        <mxCell id="CBv78so2n2Ojm-IPe4CL-27" value="" style="endArrow=open;endFill=1;endSize=12;html=1;rounded=0;exitX=1;exitY=0.5;exitDx=0;exitDy=0;" edge="1" parent="1" source="CBv78so2n2Ojm-IPe4CL-24" target="CBv78so2n2Ojm-IPe4CL-26">
          <mxGeometry width="160" relative="1" as="geometry">
            <mxPoint x="1480" y="970" as="sourcePoint" />
            <mxPoint x="1640" y="970" as="targetPoint" />
          </mxGeometry>
        </mxCell>
        <mxCell id="CBv78so2n2Ojm-IPe4CL-28" value="" style="endArrow=open;endFill=1;endSize=12;html=1;rounded=0;exitX=0.5;exitY=0;exitDx=0;exitDy=0;entryX=0;entryY=0.5;entryDx=0;entryDy=0;" edge="1" parent="1" source="CBv78so2n2Ojm-IPe4CL-26" target="CBv78so2n2Ojm-IPe4CL-5">
          <mxGeometry width="160" relative="1" as="geometry">
            <mxPoint x="330" y="900" as="sourcePoint" />
            <mxPoint x="490" y="900" as="targetPoint" />
          </mxGeometry>
        </mxCell>
        <mxCell id="CBv78so2n2Ojm-IPe4CL-29" value="Actor" style="shape=umlActor;verticalLabelPosition=bottom;verticalAlign=top;html=1;" vertex="1" parent="1">
          <mxGeometry x="-210" y="940" width="30" height="60" as="geometry" />
        </mxCell>
      </root>
    </mxGraphModel>
  </diagram>
</mxfile>
